<svg width="125" height="125" viewBox="0 0 125 125" fill="none" xmlns="http://www.w3.org/2000/svg">
<rect width="125" height="125" rx="26.25" fill="white"/>
<path d="M76.4326 59.5C80.8845 59.5 85.0699 62.0126 86.3174 66.2861C86.4708 66.8116 86.6153 67.3427 86.751 67.8789C89.3416 66.085 92.4854 65.0332 95.875 65.0332C104.737 65.0333 111.922 72.2178 111.922 81.0801C111.922 89.9423 104.737 97.1268 95.875 97.127C92.1083 97.127 88.6449 95.8282 85.9072 93.6553C81.4293 105.852 70.8915 112.383 58.6035 112.383C42.2541 112.383 29.0001 100.822 29 79.7363C29 75.0023 29.6685 70.4694 30.8896 66.2861C32.1371 62.0128 36.3217 59.5002 40.7734 59.5H76.4326ZM95.875 73.3828C91.8048 73.3828 88.4739 76.5428 88.1982 80.543C88.1945 80.7727 88.1885 81.0011 88.1816 81.2285C88.2609 85.4106 91.6739 88.7764 95.875 88.7764C100.126 88.7763 103.571 85.3306 103.571 81.0801C103.571 76.8294 100.126 73.3829 95.875 73.3828Z" fill="#FE6456"/>
<path d="M48.1817 13.8134C52.53 11.9595 57.0175 11.415 61.374 11.6474C63.9253 11.7927 66.4563 12.228 68.9063 12.9921C71.3692 13.765 73.7636 14.863 75.9219 16.4306C76.4743 16.8459 76.8856 17.4409 77.041 18.124C77.1967 18.8068 77.087 19.5167 76.7315 20.1054C76.376 20.6941 75.7988 21.1216 75.1221 21.3017C74.4453 21.4821 73.7272 21.3951 73.1026 21.0996C71.3332 20.3032 69.3693 19.8007 67.377 19.5263C65.3945 19.2547 63.3735 19.2085 61.374 19.3525C57.9695 19.5986 54.6212 20.4124 51.8906 21.8105C49.1092 23.1551 47.4228 25.3788 47.5928 26.3457C47.5928 26.3476 47.5928 26.3496 47.5928 26.3515C47.44 26.931 47.7656 27.6542 48.4375 28.4228C52.624 26.4727 57.0277 25.7195 61.3838 25.706C63.268 25.7342 64.837 26.2327 66.5459 27.1474C68.1009 28.0022 70.5365 29.8044 70.8408 32.8945C70.8616 33.0986 70.8708 33.2977 70.8711 33.5C70.9109 34.9083 70.2341 36.5311 69.3242 37.4834C68.4218 38.4676 67.4632 39.0054 66.5801 39.4121C64.788 40.1895 63.217 40.5061 61.374 40.6074C57.0709 40.7971 52.6401 40.3784 48.2783 38.6523C48.1216 38.5876 47.9636 38.5173 47.8028 38.4472C47.1543 39.1612 46.7882 39.9085 46.8037 40.6484C46.8036 40.6513 46.8039 40.6543 46.8037 40.6572C46.3038 44.2186 54.5314 48.7503 61.3848 49.0273C63.6552 49.2114 65.9644 49.1373 68.2207 48.7451C70.3157 48.3786 72.3785 47.7375 74.208 46.7226C74.5241 46.5445 74.9095 46.5002 75.2725 46.5888C75.6357 46.6781 75.947 46.8925 76.1446 47.1962C76.3421 47.5001 76.4116 47.8719 76.3457 48.2402C76.2794 48.6079 76.083 48.9426 75.792 49.1591C73.773 50.6367 71.5118 51.696 69.1748 52.4697C66.6591 53.2973 64.0383 53.7869 61.3848 53.9726C57.197 54.251 52.8647 53.833 48.6602 52.1699C44.7102 50.5411 39.5306 47.3023 39.1973 40.6826C39.1971 40.6712 39.1965 40.6598 39.1963 40.6484C39.2351 37.9555 40.0951 35.7609 41.3682 33.9746C39.7161 32.0745 38.5184 29.5955 38.4072 26.3515C38.4072 26.3391 38.4072 26.3268 38.4072 26.3144C38.6683 19.1653 44.1126 15.6267 48.1817 13.8134Z" fill="#2804C6"/>
</svg>
