<svg width="125" height="125" viewBox="0 0 125 125" fill="none" xmlns="http://www.w3.org/2000/svg">
<rect width="125" height="125" rx="26.25" fill="#FCFFEC"/>
<path d="M73.4336 72.0918C77.785 72.0919 81.911 74.4954 83.0811 78.6426C85.1059 77.2388 87.5634 76.415 90.2139 76.415C97.137 76.4152 102.749 82.0271 102.749 88.9502C102.749 95.8735 97.1371 101.486 90.2139 101.486C87.271 101.486 84.5665 100.47 82.4277 98.7725C78.9299 108.302 70.6969 113.404 61.0967 113.404C48.3245 113.404 37.9707 104.373 37.9707 87.9004C37.9707 84.7753 38.343 81.7623 39.0342 78.9316C40.0902 74.6069 44.3089 72.0919 48.7607 72.0918H73.4336ZM90.2139 82.9375C87.0332 82.9375 84.4307 85.4078 84.2168 88.5342C84.2139 88.7115 84.2084 88.8879 84.2031 89.0635C84.2633 92.3321 86.9309 94.9629 90.2139 94.9629C93.5345 94.9628 96.2266 92.2708 96.2266 88.9502C96.2263 85.6298 93.5343 82.9376 90.2139 82.9375Z" fill="#B63D00"/>
<path d="M46.2791 50.6587C47.8783 51.7923 49.8009 52.7901 52.2 53.564C51.8227 54.7897 51.7892 56.0101 52.2068 57.1666C52.8753 59.1381 55.0812 60.7925 57.8084 61.6138C62.3215 62.9863 67.7133 62.7279 72.6834 61.2437C73.1838 61.0937 73.6804 60.9302 74.1726 60.7544C75.2545 60.368 76.3161 59.9185 77.3435 59.4019C78.6358 58.752 79.8968 58.0279 81.073 57.1832C81.377 56.9635 81.7675 56.8733 82.1502 56.9224C82.5335 56.9722 82.8782 57.1571 83.116 57.4468C83.3537 57.7366 83.4682 58.111 83.4422 58.4966C83.4155 58.8816 83.2503 59.2473 82.9754 59.5025C81.7748 60.6068 80.4827 61.6134 79.1072 62.4888C78.0144 63.184 76.8813 63.8166 75.7156 64.3853C75.1852 64.6441 74.647 64.8892 74.1033 65.1216C68.6912 67.4006 62.5399 68.6144 56.282 67.0943C52.5898 66.1638 48.3796 63.9312 46.4646 59.5191C45.1656 56.4607 45.3484 53.4008 46.2791 50.6587Z" fill="#000BDD"/>
<path fill-rule="evenodd" clip-rule="evenodd" d="M60.9685 14.4058C65.1071 13.098 69.5052 12.5913 73.8172 13.0787C76.8383 13.4247 79.8396 14.267 82.4851 15.7515C82.802 15.9366 83.0745 16.2087 83.2273 16.5494C83.38 16.8896 83.4028 17.2668 83.2869 17.608C83.1708 17.9493 82.9222 18.234 82.5935 18.4107C82.2647 18.5876 81.8834 18.6378 81.5193 18.5914C78.9362 18.3062 76.3745 18.4859 73.8904 18.896C70.352 19.4899 66.9571 20.5653 63.7312 21.9498C61.9434 22.7193 60.2265 23.5811 58.5877 24.5464C52.7887 27.7585 48.0394 34.209 49.8836 38.106C50.4224 39.5654 51.4235 40.7326 52.74 41.6216C55.6213 39.1294 58.9228 37.2833 62.3807 35.9351C64.9866 34.9539 67.4968 34.3435 70.2478 34.0103C71.6321 33.8591 73.0521 33.7686 74.7264 33.9634C75.5699 34.0738 76.481 34.2364 77.5838 34.7261C78.6437 35.1918 80.1482 36.2352 80.868 38.021C81.6477 39.6512 81.5829 42.4316 80.5437 44.1041C79.5703 45.8107 78.3926 46.7017 77.3455 47.4283C75.7521 48.4867 74.242 49.1212 72.7791 49.6724C67.7985 51.5859 61.0674 52.7705 54.9637 51.4019C51.5884 50.5876 49.2404 49.3624 47.4559 47.9898C47.4616 47.9791 47.4676 47.9682 47.4734 47.9576C45.3852 46.3282 43.578 44.1335 42.2176 41.2466C38.3306 29.4614 47.4461 21.5886 54.3455 17.3482C56.4507 16.1081 58.6738 15.1325 60.9685 14.4058ZM71.0232 41.6968C69.0265 41.8652 66.8346 42.3176 64.95 42.9488C64.247 43.167 63.5391 43.4307 62.8357 43.732C65.2531 43.5599 67.7293 43.0177 70.0115 42.1187C70.3902 41.9833 70.7608 41.8385 71.1131 41.69C71.0832 41.6923 71.0532 41.6943 71.0232 41.6968Z" fill="#000BDD"/>
</svg>
